<?xml version="1.0" encoding="UTF-8"?>
<!DOCTYPE svg PUBLIC "-//W3C//DTD SVG 1.1//EN" "http://www.w3.org/Graphics/SVG/1.1/DTD/svg11.dtd">
<svg xmlns="http://www.w3.org/2000/svg" version="1.1" width="1024px" height="1024px" style="shape-rendering:geometricPrecision; text-rendering:geometricPrecision; image-rendering:optimizeQuality; fill-rule:evenodd; clip-rule:evenodd" xmlns:xlink="http://www.w3.org/1999/xlink">
<g><path style="opacity:0.977" fill="#000000" d="M 695.5,95.5 C 714.278,93.4803 727.111,101.147 734,118.5C 735.466,153.126 735.966,187.793 735.5,222.5C 769.882,222.027 804.216,222.527 838.5,224C 857.831,232.495 864.997,246.995 860,267.5C 856.159,277.001 849.325,283.167 839.5,286C 804.869,287.459 770.202,287.959 735.5,287.5C 735.966,321.874 735.466,356.207 734,390.5C 723.279,412.074 706.779,418.241 684.5,409C 678.399,404.563 674.233,398.73 672,391.5C 670.534,356.874 670.034,322.207 670.5,287.5C 635.798,287.959 601.131,287.459 566.5,286C 552.12,280.27 544.786,269.604 544.5,254C 544.953,238.889 552.287,228.889 566.5,224C 601.118,222.527 635.785,222.027 670.5,222.5C 670.333,189.498 670.5,156.498 671,123.5C 673.873,109.355 682.04,100.022 695.5,95.5 Z"/></g>
<g><path style="opacity:0.986" fill="#000000" d="M 386.5,286.5 C 453.599,285.291 504.766,312.957 540,369.5C 566.503,420.46 565.836,471.126 538,521.5C 493.836,591.658 431.336,617.158 350.5,598C 292.955,575.75 257.122,534.583 243,474.5C 235.627,400.079 263.794,343.579 327.5,305C 346.183,295.27 365.85,289.103 386.5,286.5 Z M 398.5,350.5 C 447.827,354.33 479.327,379.997 493,427.5C 499.675,477.981 479.842,513.814 433.5,535C 388.025,549.063 350.858,537.23 322,499.5C 301.903,468.181 300.236,435.847 317,402.5C 335.474,371.357 362.641,354.023 398.5,350.5 Z"/></g>
<g><path style="opacity:0.985" fill="#000000" d="M 538.5,605.5 C 548.205,604.238 557.205,606.071 565.5,611C 617.443,667.14 641.943,733.64 639,810.5C 637.502,821.329 633.836,831.329 628,840.5C 614.27,860.228 596.77,875.728 575.5,887C 545.408,902.253 513.741,912.92 480.5,919C 422.813,930.272 365.147,930.272 307.5,919C 271.534,911.01 238.2,897.01 207.5,877C 178.385,857.119 162.719,829.453 160.5,794C 162.856,728.573 184.689,670.74 226,620.5C 240.079,606.349 255.913,603.849 273.5,613C 287.254,625.131 289.087,638.964 279,654.5C 265.747,672.443 254.08,691.443 244,711.5C 231.201,740.493 225.201,770.827 226,802.5C 229.256,811.094 234.756,817.927 242.5,823C 277.636,843.822 315.636,855.822 356.5,859C 401.856,862.451 446.856,859.784 491.5,851C 512.994,847.06 532.994,839.394 551.5,828C 558.262,823.242 564.429,817.742 570,811.5C 571.893,808.382 573.226,805.049 574,801.5C 575.187,756.066 562.853,714.732 537,677.5C 530,668.5 523,659.5 516,650.5C 510.192,628.782 517.692,613.782 538.5,605.5 Z"/></g>
</svg>
