<?xml version="1.0" encoding="UTF-8"?>
<!DOCTYPE svg PUBLIC "-//W3C//DTD SVG 1.1//EN" "http://www.w3.org/Graphics/SVG/1.1/DTD/svg11.dtd">
<svg xmlns="http://www.w3.org/2000/svg" version="1.1" width="1024px" height="1024px" style="shape-rendering:geometricPrecision; text-rendering:geometricPrecision; image-rendering:optimizeQuality; fill-rule:evenodd; clip-rule:evenodd" xmlns:xlink="http://www.w3.org/1999/xlink">
<g><path style="opacity:0.987" fill="#000000" d="M 503.5,96.5 C 528.009,96.1702 550.009,103.337 569.5,118C 654.833,193.333 740.167,268.667 825.5,344C 844.494,361.005 855.66,382.172 859,407.5C 859.667,551.167 859.667,694.833 859,838.5C 851.702,881.799 826.869,909.299 784.5,921C 779.877,921.958 775.21,922.625 770.5,923C 724.5,923.667 678.5,923.667 632.5,923C 614.608,919.777 605.274,909.11 604.5,891C 605.274,872.89 614.608,862.223 632.5,859C 678.5,858.667 724.5,858.333 770.5,858C 785.097,854.067 793.264,844.567 795,829.5C 795.667,691.5 795.667,553.5 795,415.5C 793.855,406.043 789.689,398.21 782.5,392C 697.833,317.333 613.167,242.667 528.5,168C 516.077,159.738 503.411,159.405 490.5,167C 405.5,242 320.5,317 235.5,392C 229.778,396.617 225.944,402.45 224,409.5C 222.753,424.121 222.086,438.788 222,453.5C 217.606,472.886 205.439,482.052 185.5,481C 170.573,477.739 161.74,468.572 159,453.5C 158.1,435.465 158.433,417.465 160,399.5C 163.183,383.471 169.85,369.137 180,356.5C 187.197,348.969 194.697,341.802 202.5,335C 284.797,263.039 366.797,190.705 448.5,118C 464.885,105.599 483.218,98.4319 503.5,96.5 Z"/></g>
<g><path style="opacity:0.97" fill="#000000" d="M 378.5,474.5 C 394.865,474.007 405.365,482.007 410,498.5C 410.5,555.832 410.667,613.166 410.5,670.5C 468.168,670.333 525.834,670.5 583.5,671C 597.524,675.021 605.191,684.354 606.5,699C 604.819,714.018 596.653,723.518 582,727.5C 524.959,727.208 467.959,726.874 411,726.5C 410.667,784.167 410.333,841.833 410,899.5C 403.866,918.815 391.032,925.981 371.5,921C 361.406,915.902 355.573,907.735 354,896.5C 353.5,840.168 353.333,783.834 353.5,727.5C 295.906,727.416 239.24,727.249 183.5,727C 165.762,722.918 157.595,711.751 159,693.5C 161.821,681.346 169.321,673.846 181.5,671C 239.167,670.667 296.833,670.333 354.5,670C 353.336,613.904 353.169,557.737 354,501.5C 356.118,486.887 364.285,477.887 378.5,474.5 Z"/></g>
</svg>
