<?xml version="1.0" standalone="no"?>
<!DOCTYPE svg PUBLIC "-//W3C//DTD SVG 20010904//EN"
 "http://www.w3.org/TR/2001/REC-SVG-20010904/DTD/svg10.dtd">
<svg version="1.0" xmlns="http://www.w3.org/2000/svg"
 width="512.000000pt" height="512.000000pt" viewBox="0 0 512.000000 512.000000"
 preserveAspectRatio="xMidYMid meet">

<g transform="translate(0.000000,512.000000) scale(0.100000,-0.100000)"
fill="#000000" stroke="none">
<path d="M1864 3011 c-52 -24 -81 -61 -89 -116 -13 -81 5 -102 376 -472 372
-369 366 -365 457 -348 32 6 83 52 390 358 274 274 355 360 364 389 31 103
-57 218 -156 203 -21 -3 -52 -13 -70 -21 -17 -9 -151 -136 -299 -282 l-267
-267 -278 278 c-317 317 -327 324 -428 278z"/>
</g>
</svg>
