<svg width="48" height="48" viewBox="0 0 48 48" fill="none" xmlns="http://www.w3.org/2000/svg">
<path opacity="0.19" d="M23.5001 47.9999C29.2439 47.9999 33.9001 46.5224 33.9001 44.6999C33.9001 42.8774 29.2439 41.3999 23.5001 41.3999C17.7563 41.3999 13.1001 42.8774 13.1001 44.6999C13.1001 46.5224 17.7563 47.9999 23.5001 47.9999Z" fill="black"/>
<path d="M23.5 0C14.1 0 6.5 7.5 6.5 16.8C6.5 26.1 23.5 44.8 23.5 44.8C23.5 44.8 40.5 26.1 40.5 16.8C40.5 7.5 32.9 0 23.5 0Z" fill="#3C3C3C"/>
<path d="M23.4998 19.6998C25.8194 19.6998 27.6998 17.8194 27.6998 15.4998C27.6998 13.1802 25.8194 11.2998 23.4998 11.2998C21.1802 11.2998 19.2998 13.1802 19.2998 15.4998C19.2998 17.8194 21.1802 19.6998 23.4998 19.6998Z" fill="#313131"/>
<path d="M23.4999 12.1998C25.6999 12.1998 27.3999 13.7998 27.6999 15.9998C27.6999 15.7998 27.7999 15.6998 27.7999 15.4998C27.7999 13.1998 25.8999 11.2998 23.5999 11.2998C21.2999 11.2998 19.3999 13.1998 19.3999 15.4998C19.3999 15.6998 19.3999 15.7998 19.4999 15.9998C19.5999 13.8998 21.2999 12.1998 23.4999 12.1998Z" fill="#202020"/>
</svg>
