<?xml version="1.0" standalone="no"?>
<!DOCTYPE svg PUBLIC "-//W3C//DTD SVG 20010904//EN"
 "http://www.w3.org/TR/2001/REC-SVG-20010904/DTD/svg10.dtd">
<svg version="1.0" xmlns="http://www.w3.org/2000/svg"
 width="512.000000pt" height="512.000000pt" viewBox="0 0 512.000000 512.000000"
 preserveAspectRatio="xMidYMid meet">

<g transform="translate(0.000000,512.000000) scale(0.100000,-0.100000)"
fill="#000000" stroke="none">
<path d="M3470 4633 c-28 -5 -552 -519 -576 -565 -17 -32 -18 -101 -3 -131 6
-12 207 -219 448 -460 l436 -437 -1030 -1030 -1030 -1029 -433 -72 c-237 -40
-435 -69 -439 -66 -4 4 25 201 64 439 l71 431 861 861 c596 597 862 870 867
889 10 43 -1 116 -23 145 -34 46 -69 65 -129 70 l-56 5 -904 -904 c-612 -612
-907 -914 -913 -934 -5 -16 -53 -294 -107 -617 -108 -651 -107 -634 -43 -697
62 -62 44 -64 700 44 327 54 608 104 624 111 17 8 647 632 1402 1386 1239
1240 1372 1377 1379 1411 16 90 23 82 -514 621 -335 335 -510 504 -537 517
-39 18 -65 21 -115 12z m420 -748 l365 -365 -128 -127 -127 -128 -367 367
-368 368 125 125 c69 69 127 125 130 125 3 0 169 -164 370 -365z"/>
</g>
</svg>
