<svg width="179" height="59" viewBox="0 0 179 59" fill="none" xmlns="http://www.w3.org/2000/svg">
<path d="M92.468 37L91.402 34.088H85.11L83.94 37H79.182L85.838 19.658H90.752L97.278 37H92.468ZM86.358 30.656H90.206L88.256 25.04L86.358 30.656ZM110.036 23.48H106.344V37H101.846V23.48H98.1539V19.658H110.036V23.48ZM123.184 19.658V23.48H117.828V26.366H122.898V30.188H117.828V33.178H123.184V37H113.33V19.658H123.184ZM127.351 19.658H131.849V33.178H137.257V37H127.351V19.658ZM140.864 19.658H145.362V37H140.864V19.658ZM160.168 19.658V23.48H154.812V26.366H159.882V30.188H154.812V33.178H160.168V37H150.314V19.658H160.168ZM164.335 19.658H171.355C173.192 19.658 174.605 20.1693 175.593 21.192C176.581 22.1973 177.075 23.4973 177.075 25.092C177.075 26.6173 176.616 27.822 175.697 28.706C175.056 29.3127 174.258 29.7113 173.305 29.902L178.739 37H173.149L168.833 30.344V37H164.335V19.658ZM168.833 23.142V27.432H169.691C170.662 27.432 171.39 27.198 171.875 26.73C172.256 26.3487 172.447 25.8633 172.447 25.274C172.447 24.6673 172.248 24.182 171.849 23.818C171.398 23.3673 170.679 23.142 169.691 23.142H168.833Z" fill="white"/>
<rect x="1.94824" y="1.94824" width="55.1034" height="55.1034" rx="6" fill="black" stroke="white" stroke-width="2" stroke-dasharray="5 5"/>
<path d="M34.537 48.2734C32.7212 47.8428 31.0806 46.4895 30.1727 44.6901C29.44 43.2292 29.1852 42.1373 29.01 39.446C28.787 36.2164 28.6596 35.6474 27.8472 34.0326C26.7004 31.7565 25.7447 30.5878 20.9822 25.5281C15.28 19.4842 10.1034 13.6403 9.96001 13.0866C9.76887 12.3177 10.7246 11.395 11.521 11.5795C12.1262 11.7333 18.3541 16.9006 25.1076 22.8368C29.0737 26.3278 30.7621 27.6504 32.6257 28.7269C34.8078 29.9726 35.9228 30.2494 39.4907 30.434C42.9311 30.6031 44.062 30.8646 45.4318 31.7873C47.7414 33.3559 48.7289 36.2625 47.6936 38.4617C47.3273 39.246 45.2407 41.3683 44.4761 41.7528C43.0585 42.4602 41.9117 41.8912 38.5668 38.8C37.2767 37.5851 36.1298 36.6009 36.0502 36.6009C35.6838 36.6009 36.2095 37.2468 38.1527 39.1999C41.3065 42.3833 41.8958 43.3829 41.3065 44.6594C40.9242 45.5206 38.742 47.5967 37.8023 48.012C36.9899 48.3811 35.4449 48.5041 34.537 48.2734ZM37.0537 45.8589C38.3757 45.1208 38.9013 43.6598 38.2642 42.4602C37.8501 41.6605 35.6679 39.446 34.4096 38.5232C33.1831 37.6313 32.6257 37.5236 32.0682 38.0465C31.654 38.4463 31.654 38.4771 31.654 40.6455C31.67 42.9831 31.7655 43.4137 32.6257 44.6286C33.661 46.0742 35.6679 46.6279 37.0537 45.8589ZM44.1417 38.8462C44.8266 38.4925 45.6867 37.4775 45.8141 36.8623C45.9415 36.201 45.6867 35.1553 45.2407 34.5555C44.5876 33.6635 42.74 33.1406 39.6181 32.9561C37.5793 32.8484 37.2289 32.9715 37.3563 33.8481C37.4678 34.6631 38.4235 35.8319 40.1119 37.2468C42.2144 39 43.1063 39.3537 44.1417 38.8462Z" fill="white"/>
</svg>
