<?xml version="1.0" encoding="UTF-8"?>
<!DOCTYPE svg PUBLIC "-//W3C//DTD SVG 1.1//EN" "http://www.w3.org/Graphics/SVG/1.1/DTD/svg11.dtd">
<svg xmlns="http://www.w3.org/2000/svg" version="1.1" width="512px" height="512px" style="shape-rendering:geometricPrecision; text-rendering:geometricPrecision; image-rendering:optimizeQuality; fill-rule:evenodd; clip-rule:evenodd" xmlns:xlink="http://www.w3.org/1999/xlink">
<g><path style="opacity:1" fill="#fafafa" d="M -0.5,-0.5 C 170.167,-0.5 340.833,-0.5 511.5,-0.5C 511.5,170.167 511.5,340.833 511.5,511.5C 340.833,511.5 170.167,511.5 -0.5,511.5C -0.5,340.833 -0.5,170.167 -0.5,-0.5 Z"/></g>
<g><path style="opacity:1" fill="#010101" d="M 89.5,47.5 C 199.834,47.3333 310.167,47.5 420.5,48C 444.009,52.8423 458.176,67.009 463,90.5C 463.667,162.167 463.667,233.833 463,305.5C 458.272,316.776 450.105,320.276 438.5,316C 435.131,313.635 432.964,310.468 432,306.5C 431.667,234.833 431.333,163.167 431,91.5C 429.037,85.2689 424.87,81.4356 418.5,80C 309.499,78.0075 200.499,78.0075 91.5,80C 85.6667,81.8333 81.8333,85.6667 80,91.5C 79.3333,154.5 79.3333,217.5 80,280.5C 103.167,257.333 126.333,234.167 149.5,211C 156.106,206.603 162.773,206.603 169.5,211C 198.014,239.68 226.68,268.18 255.5,296.5C 273.986,278.514 292.319,260.347 310.5,242C 316.95,238.725 323.284,239.059 329.5,243C 374.028,287.194 418.194,331.694 462,376.5C 463.933,392.802 463.933,409.136 462,425.5C 455.877,445.956 442.377,458.456 421.5,463C 310.833,463.667 200.167,463.667 89.5,463C 66.2115,458.045 52.3782,443.878 48,420.5C 47.3333,406.833 47.3333,393.167 48,379.5C 54.3306,368.082 63.164,365.582 74.5,372C 76.3773,374.251 77.8773,376.751 79,379.5C 79.3333,392.833 79.6667,406.167 80,419.5C 81.8333,425.333 85.6667,429.167 91.5,431C 193.819,433.941 296.153,434.274 398.5,432C 406.577,431.902 414.577,431.235 422.5,430C 427.149,427.545 429.983,423.712 431,418.5C 431.667,408.833 431.667,399.167 431,389.5C 393.986,352.32 356.82,315.32 319.5,278.5C 305.5,291.833 291.833,305.5 278.5,319.5C 285.485,326.986 292.652,334.319 300,341.5C 305.718,353.241 302.551,361.741 290.5,367C 285.684,368.027 281.35,367.027 277.5,364C 238.32,324.653 198.986,285.486 159.5,246.5C 131.014,274.486 102.68,302.653 74.5,331C 66.1597,337.448 58.3263,336.948 51,329.5C 49.4379,327.043 48.4379,324.376 48,321.5C 47.3333,244.167 47.3333,166.833 48,89.5C 53.3439,66.99 67.1773,52.99 89.5,47.5 Z"/></g>
<g><path style="opacity:1" fill="#020202" d="M 345.5,111.5 C 377.006,112.34 395.006,128.34 399.5,159.5C 396.734,185.898 382.401,201.731 356.5,207C 327.718,206.893 310.218,192.727 304,164.5C 303.942,135.947 317.775,118.28 345.5,111.5 Z"/></g>
<g><path style="opacity:1" fill="#f8f8f8" d="M 347.5,143.5 C 363.201,143.688 369.368,151.355 366,166.5C 359.752,174.343 351.919,176.51 342.5,173C 334.784,166.536 333.617,159.036 339,150.5C 341.441,147.546 344.275,145.213 347.5,143.5 Z"/></g>
</svg>
