<svg width="25" height="25" viewBox="0 0 25 25" fill="none" xmlns="http://www.w3.org/2000/svg">
<path d="M12.3755 14.9721C13.5867 14.9721 14.5685 13.9902 14.5685 12.779C14.5685 11.5678 13.5867 10.5859 12.3755 10.5859C11.1642 10.5859 10.1824 11.5678 10.1824 12.779C10.1824 13.9902 11.1642 14.9721 12.3755 14.9721Z" fill="white"/>
<path d="M15.1168 7.396H9.6341C8.83662 7.396 8.13882 7.64521 7.69023 8.0938C7.24165 8.54238 6.99243 9.24018 6.99243 10.0377V15.5204C6.99243 16.3179 7.24165 17.0157 7.74007 17.5141C8.2385 17.9627 8.88646 18.2119 9.68394 18.2119H15.1168C15.9143 18.2119 16.6121 17.9627 17.0607 17.5141C17.5591 17.0655 17.8083 16.3677 17.8083 15.5702V10.0875C17.8083 9.29002 17.5591 8.64207 17.1105 8.14364C16.6121 7.64521 15.9641 7.396 15.1168 7.396ZM12.3755 16.1683C10.4814 16.1683 8.98614 14.6232 8.98614 12.779C8.98614 10.885 10.5313 9.38971 12.3755 9.38971C14.2196 9.38971 15.8146 10.885 15.8146 12.779C15.8146 14.673 14.2695 16.1683 12.3755 16.1683ZM15.9143 10.0377C15.4657 10.0377 15.1168 9.68876 15.1168 9.24018C15.1168 8.79159 15.4657 8.44269 15.9143 8.44269C16.3629 8.44269 16.7118 8.79159 16.7118 9.24018C16.7118 9.68876 16.3629 10.0377 15.9143 10.0377Z" fill="white"/>
<path d="M12.4752 0.417969C5.69657 0.417969 0.213867 5.90068 0.213867 12.6793C0.213867 19.4579 5.69657 24.9406 12.4752 24.9406C19.2538 24.9406 24.7365 19.4579 24.7365 12.6793C24.7864 5.90068 19.2538 0.417969 12.4752 0.417969ZM19.0046 15.5702C19.0046 16.7166 18.6059 17.7134 17.9081 18.4112C17.2103 19.109 16.2134 19.4579 15.1169 19.4579H9.684C8.58746 19.4579 7.5906 19.109 6.8928 18.4112C6.14516 17.7134 5.79626 16.7166 5.79626 15.5702V10.0875C5.79626 7.7947 7.34139 6.19973 9.684 6.19973H15.1667C16.3131 6.19973 17.2601 6.59848 17.9579 7.29628C18.6557 7.99407 19.0046 8.94109 19.0046 10.0875V15.5702Z" fill="white"/>
</svg>
