<?xml version="1.0" standalone="no"?>
<!DOCTYPE svg PUBLIC "-//W3C//DTD SVG 20010904//EN"
 "http://www.w3.org/TR/2001/REC-SVG-20010904/DTD/svg10.dtd">
<svg version="1.0" xmlns="http://www.w3.org/2000/svg"
 width="512.000000pt" height="512.000000pt" viewBox="0 0 512.000000 512.000000"
 preserveAspectRatio="xMidYMid meet">

<g transform="translate(0.000000,512.000000) scale(0.100000,-0.100000)"
fill="#000000" stroke="none">
<path d="M2436 4620 c-112 -29 -144 -54 -791 -625 -346 -306 -660 -586 -697
-622 -122 -120 -151 -204 -146 -417 3 -157 9 -173 71 -220 38 -28 126 -28 164
0 60 45 67 64 74 207 3 73 11 141 17 152 6 11 34 43 64 71 123 118 1259 1114
1287 1128 36 19 107 20 138 3 13 -7 317 -273 677 -590 436 -385 660 -589 670
-612 15 -30 16 -140 14 -1102 l-3 -1068 -24 -34 c-49 -68 -64 -71 -454 -71
-390 0 -397 -1 -443 -69 -48 -71 -27 -169 49 -225 28 -20 38 -21 415 -21 379
0 388 0 455 23 75 26 166 89 216 148 46 56 88 149 101 224 8 46 10 385 8 1145
l-3 1080 -23 60 c-45 120 -67 142 -760 754 -365 322 -681 598 -704 613 -70 47
-145 70 -243 74 -49 2 -107 -1 -129 -6z"/>
<path d="M1715 2714 c-157 -29 -188 -61 -195 -201 l-5 -96 -47 -29 -48 -30
-74 41 c-131 73 -190 57 -300 -80 -84 -106 -146 -217 -186 -336 -50 -147 -31
-199 99 -272 l61 -35 0 -57 0 -58 -71 -42 c-111 -66 -135 -122 -100 -236 43
-142 132 -297 233 -408 89 -98 136 -106 258 -43 l81 43 47 -27 47 -27 5 -93
c5 -97 12 -118 53 -156 53 -49 273 -81 440 -63 243 27 297 72 297 253 l0 63
48 26 47 26 65 -38 c120 -71 175 -64 264 32 102 109 190 262 236 405 38 118
13 178 -99 244 l-71 41 0 57 0 57 50 28 c97 55 140 107 140 172 0 35 -45 164
-83 240 -61 122 -184 283 -238 310 -52 27 -114 19 -195 -26 l-74 -40 -43 26
-44 25 -5 88 c-8 139 -39 179 -161 208 -100 23 -328 28 -432 8z m275 -377 c0
-111 15 -131 140 -194 57 -29 113 -61 124 -72 78 -72 147 -79 242 -26 l63 36
26 -41 c31 -49 50 -89 44 -94 -2 -2 -30 -19 -62 -39 -93 -59 -94 -65 -93 -295
2 -228 4 -234 93 -284 29 -16 56 -34 59 -39 6 -10 -42 -103 -61 -119 -8 -7
-33 1 -79 25 -37 19 -79 35 -92 35 -35 0 -88 -24 -134 -61 -23 -18 -82 -53
-132 -78 -117 -59 -131 -78 -138 -184 l-5 -82 -75 0 -75 0 -5 82 c-6 106 -21
125 -136 183 -50 25 -109 60 -131 78 -89 71 -144 75 -240 21 -29 -17 -57 -27
-63 -24 -11 7 -70 105 -70 117 0 4 26 23 59 42 95 58 96 60 97 286 1 145 -2
202 -12 221 -16 31 -56 66 -107 94 -20 11 -37 24 -37 28 0 5 16 36 36 68 l36
59 62 -35 c95 -53 133 -50 237 21 45 31 105 66 133 77 110 44 136 82 136 196
l0 71 80 0 80 0 0 -73z"/>
</g>
</svg>
