<?xml version="1.0" standalone="no"?>
<!DOCTYPE svg PUBLIC "-//W3C//DTD SVG 20010904//EN"
 "http://www.w3.org/TR/2001/REC-SVG-20010904/DTD/svg10.dtd">
<svg version="1.0" xmlns="http://www.w3.org/2000/svg"
 width="512.000000pt" height="512.000000pt" viewBox="0 0 512.000000 512.000000"
 preserveAspectRatio="xMidYMid meet">

<g transform="translate(0.000000,512.000000) scale(0.100000,-0.100000)"
fill="#000000" stroke="none">
<path d="M892 4303 c-18 -9 -45 -32 -60 -51 l-27 -35 0 -697 0 -697 27 -35
c54 -71 20 -68 768 -68 748 0 714 -3 768 68 l27 35 3 361 c3 359 2 361 -20
406 -15 30 -37 53 -63 67 -81 46 -157 19 -207 -72 l-28 -50 0 -247 0 -248
-480 0 -480 0 0 480 0 480 589 2 c582 3 590 3 618 24 89 66 89 202 0 268 -28
21 -35 21 -715 23 -621 3 -690 1 -720 -14z"/>
<path d="M2812 4303 c-18 -9 -45 -32 -60 -51 l-27 -35 0 -697 0 -697 27 -35
c54 -71 20 -68 768 -68 748 0 714 -3 768 68 l27 35 0 697 0 697 -29 37 c-52
68 -23 66 -768 66 -603 0 -676 -2 -706 -17z m1188 -783 l0 -480 -480 0 -480 0
0 480 0 480 480 0 480 0 0 -480z"/>
<path d="M895 2384 c-46 -24 -74 -54 -86 -93 -6 -24 -9 -267 -7 -712 l3 -676
27 -35 c54 -71 20 -68 768 -68 748 0 714 -3 768 68 l27 35 0 697 0 697 -29 37
c-52 68 -23 66 -768 66 -590 0 -677 -2 -703 -16z m1185 -784 l0 -480 -480 0
-480 0 0 480 0 480 480 0 480 0 0 -480z"/>
<path d="M2812 2383 c-18 -9 -45 -32 -60 -51 l-27 -35 0 -697 0 -697 27 -35
c54 -71 20 -68 768 -68 748 0 714 -3 768 68 l27 35 0 697 0 697 -29 37 c-52
68 -23 66 -768 66 -603 0 -676 -2 -706 -17z m1188 -783 l0 -480 -480 0 -480 0
0 480 0 480 480 0 480 0 0 -480z"/>
</g>
</svg>
