<?xml version="1.0" standalone="no"?>
<!DOCTYPE svg PUBLIC "-//W3C//DTD SVG 20010904//EN"
 "http://www.w3.org/TR/2001/REC-SVG-20010904/DTD/svg10.dtd">
<svg version="1.0" xmlns="http://www.w3.org/2000/svg"
 width="512.000000pt" height="512.000000pt" viewBox="0 0 512.000000 512.000000"
 preserveAspectRatio="xMidYMid meet">

<g transform="translate(0.000000,512.000000) scale(0.100000,-0.100000)"
fill="#000000" stroke="none">
<path d="M2507 4306 c-21 -8 -47 -22 -59 -33 -49 -44 -48 -22 -48 -813 l0
-740 -733 0 -733 0 -44 -22 c-58 -30 -95 -97 -85 -156 8 -52 38 -98 77 -122
32 -19 52 -20 776 -20 l742 0 0 -742 c0 -724 1 -744 20 -776 65 -106 222 -102
278 8 l22 44 0 733 0 733 738 0 c718 0 738 1 770 20 106 65 102 222 -8 278
l-44 22 -728 0 -728 0 0 733 0 733 -22 44 c-17 33 -35 51 -68 68 -51 25 -70
27 -123 8z"/>
</g>
</svg>
