<svg width="86" height="86" viewBox="0 0 86 86" fill="none" xmlns="http://www.w3.org/2000/svg">
<rect width="86" height="86" rx="10" fill="black"/>
<g clip-path="url(#clip0_289_66)">
<path d="M43.0159 16.3114C37.7367 16.3067 32.5747 17.8678 28.1828 20.7971C23.791 23.7265 20.3665 27.8926 18.3426 32.7684C16.3187 37.6442 15.7864 43.0108 16.8128 48.1892C17.8393 53.3676 20.3785 58.1253 24.1092 61.8605C27.8399 65.5957 32.5946 68.1405 37.7718 69.1731C42.949 70.2057 48.3162 69.6797 53.1944 67.6616C58.0726 65.6436 62.2428 62.2241 65.1773 57.8357C68.1119 53.4473 69.6791 48.2871 69.6807 43.008C69.6744 35.935 66.8641 29.1531 61.8657 24.1488C56.8674 19.1445 50.0888 16.3261 43.0159 16.3114ZM43.0159 66.8184C38.3113 66.8184 33.7124 65.4233 29.8007 62.8096C25.889 60.1959 22.8402 56.4809 21.0399 52.1345C19.2395 47.7881 18.7685 43.0054 19.6863 38.3912C20.6041 33.777 22.8696 29.5387 26.1962 26.212C29.5228 22.8854 33.7612 20.62 38.3753 19.7022C42.9895 18.7843 47.7722 19.2554 52.1186 21.0557C56.4651 22.8561 60.18 25.9049 62.7937 29.8166C65.4075 33.7283 66.8025 38.3272 66.8025 43.0317C66.7879 49.3366 64.2773 55.3791 59.8199 59.8381C55.3624 64.297 49.3207 66.8096 43.0159 66.8263V66.8184Z" fill="white"/>
<path d="M49.7474 38.6709L43.9911 44.4272V23.9549C43.9642 23.5937 43.8017 23.2561 43.5363 23.0097C43.2708 22.7633 42.9221 22.6263 42.5599 22.6263C42.1977 22.6263 41.849 22.7633 41.5835 23.0097C41.3181 23.2561 41.1556 23.5937 41.1287 23.9549V47.8763C41.1166 47.9684 41.1166 48.0617 41.1287 48.1538C41.1251 48.1934 41.1251 48.2332 41.1287 48.2727C41.1507 48.3743 41.191 48.471 41.2477 48.5582C41.2613 48.5974 41.28 48.6347 41.3032 48.6692C41.4112 48.8261 41.5485 48.9607 41.7075 49.0656C41.7339 49.0861 41.7633 49.1022 41.7948 49.1132L41.9533 49.2004L42.0802 49.2401H42.215C42.4003 49.2822 42.5927 49.2822 42.7779 49.2401H42.9127L43.0396 49.2004L43.1982 49.1132C43.2296 49.1022 43.2591 49.0861 43.2854 49.0656C43.368 49.0161 43.4428 48.9547 43.5074 48.8833L51.7376 40.6927C52.0044 40.4239 52.1541 40.0605 52.1541 39.6818C52.1541 39.3031 52.0044 38.9397 51.7376 38.6709C51.4721 38.4099 51.1148 38.2636 50.7425 38.2636C50.3702 38.2636 50.0129 38.4099 49.7474 38.6709Z" fill="white"/>
<path d="M43.016 9.96827C36.4883 9.96513 30.1063 11.8976 24.6767 15.5212C19.2472 19.1449 15.014 24.297 12.5124 30.3263C10.0107 36.3556 9.35294 42.9912 10.6222 49.3943C11.8915 55.7974 15.0308 61.6804 19.6432 66.2995C24.2556 70.9186 30.1341 74.0664 36.5353 75.3448C42.9366 76.6233 49.5732 75.9751 55.6061 73.4821C61.639 70.9892 66.7972 66.7634 70.4287 61.3391C74.0602 55.9148 76.0018 49.5356 76.008 43.0079C76.0081 34.2535 72.5336 25.8569 66.3478 19.6622C60.1619 13.4674 51.7704 9.98087 43.016 9.96827V9.96827ZM43.016 73.1139C37.0569 73.1139 31.2316 71.3468 26.2768 68.0361C21.322 64.7254 17.4602 60.0198 15.1797 54.5143C12.8993 49.0088 12.3026 42.9507 13.4652 37.1061C14.6277 31.2615 17.4973 25.8929 21.711 21.6792C25.9247 17.4655 31.2934 14.5959 37.138 13.4333C42.9825 12.2707 49.0406 12.8674 54.5461 15.1479C60.0516 17.4283 64.7572 21.2901 68.0679 26.2449C71.3786 31.1997 73.1457 37.025 73.1457 42.9841C73.1436 50.9773 69.9696 58.643 64.3205 64.298C58.6715 69.953 51.0091 73.1351 43.016 73.1456V73.1139Z" fill="white"/>
</g>
<defs>
<clipPath id="clip0_289_66">
<rect width="66" height="66" fill="white" transform="translate(10 10)"/>
</clipPath>
</defs>
</svg>
