<?xml version="1.0" standalone="no"?>
<!DOCTYPE svg PUBLIC "-//W3C//DTD SVG 20010904//EN"
 "http://www.w3.org/TR/2001/REC-SVG-20010904/DTD/svg10.dtd">
<svg version="1.0" xmlns="http://www.w3.org/2000/svg"
 width="512.000000pt" height="512.000000pt" viewBox="0 0 512.000000 512.000000"
 preserveAspectRatio="xMidYMid meet">

<g transform="translate(0.000000,512.000000) scale(0.100000,-0.100000)"
fill="#000000" stroke="none">
<path d="M886 4296 c-21 -13 -49 -41 -62 -62 l-23 -39 0 -355 0 -355 23 -39
c13 -21 41 -49 62 -62 l39 -23 1630 -1 c1569 0 1632 1 1665 19 19 10 48 35 65
55 l30 38 0 372 c0 367 0 372 -22 399 -58 74 -123 93 -195 58 -24 -11 -55 -36
-69 -53 -24 -33 -24 -36 -29 -298 l-5 -265 -1435 0 -1435 0 0 155 0 155 1225
5 1225 5 28 22 c74 58 93 124 57 196 -13 25 -37 56 -54 69 l-31 23 -1325 2
-1325 3 -39 -24z"/>
<path d="M886 3016 c-21 -13 -49 -41 -62 -62 l-23 -39 0 -355 0 -355 23 -39
c13 -21 41 -49 62 -62 l39 -23 1635 0 1635 0 39 23 c21 13 49 41 62 62 l23 39
1 349 c0 339 -1 350 -22 393 -14 28 -36 52 -64 68 l-43 25 -1633 0 -1633 -1
-39 -23z m3109 -456 l0 -155 -1435 0 -1435 0 -3 145 c-1 79 0 150 2 157 4 11
270 13 1438 11 l1433 -3 0 -155z"/>
<path d="M886 1736 c-21 -13 -49 -41 -62 -62 l-23 -39 0 -355 0 -355 23 -39
c13 -21 41 -49 62 -62 l39 -23 1630 -1 c1569 0 1632 1 1665 19 19 10 48 35 65
55 l30 38 3 355 c3 349 2 355 -19 399 -15 29 -37 53 -65 69 l-43 25 -1633 0
-1633 -1 -39 -23z m3109 -456 l0 -155 -1435 0 -1435 0 -3 145 c-1 79 0 150 2
157 4 11 270 13 1438 11 l1433 -3 0 -155z"/>
</g>
</svg>
