<?xml version="1.0" encoding="UTF-8"?>
<!DOCTYPE svg PUBLIC "-//W3C//DTD SVG 1.1//EN" "http://www.w3.org/Graphics/SVG/1.1/DTD/svg11.dtd">
<svg xmlns="http://www.w3.org/2000/svg" version="1.1" width="512px" height="512px" style="shape-rendering:geometricPrecision; text-rendering:geometricPrecision; image-rendering:optimizeQuality; fill-rule:evenodd; clip-rule:evenodd" xmlns:xlink="http://www.w3.org/1999/xlink">
<g><path style="opacity:0.947" fill="#000000" d="M 392.5,102.5 C 411.448,99.8821 423.948,107.549 430,125.5C 430.667,129.5 430.667,133.5 430,137.5C 412,220.831 394,304.164 376,387.5C 368.729,403.558 356.229,410.391 338.5,408C 335.382,406.941 332.382,405.608 329.5,404C 292.047,375.549 254.881,346.716 218,317.5C 209.909,303.283 211.909,290.616 224,279.5C 231.167,272.333 238.333,265.167 245.5,258C 227.356,267.749 209.356,278.083 191.5,289C 179.673,294.755 172.006,291.255 168.5,278.5C 169.188,273.617 171.521,269.784 175.5,267C 223.998,238.585 272.332,209.919 320.5,181C 330.197,174.549 338.031,176.382 344,186.5C 344.738,190.261 344.405,193.928 343,197.5C 309.276,232.225 275.11,266.725 240.5,301C 274.652,327.908 308.986,354.575 343.5,381C 345.167,381.667 346.833,381.667 348.5,381C 352.204,368.35 355.371,355.517 358,342.5C 372.663,271.848 387.83,201.348 403.5,131C 402.07,129.56 400.403,129.226 398.5,130C 303.491,168.172 208.491,206.339 113.5,244.5C 118.038,246.935 122.704,249.102 127.5,251C 135.768,259.055 135.434,266.721 126.5,274C 123.262,275.368 119.928,275.701 116.5,275C 108.844,272.003 101.178,269.003 93.5,266C 78.5011,255.063 76.5011,242.063 87.5,227C 90.5017,224.497 93.8351,222.497 97.5,221C 196.148,182 294.481,142.5 392.5,102.5 Z"/></g>
</svg>
