<?xml version="1.0" standalone="no"?>
<!DOCTYPE svg PUBLIC "-//W3C//DTD SVG 20010904//EN"
 "http://www.w3.org/TR/2001/REC-SVG-20010904/DTD/svg10.dtd">
<svg version="1.0" xmlns="http://www.w3.org/2000/svg"
 width="512.000000pt" height="512.000000pt" viewBox="0 0 512.000000 512.000000"
 preserveAspectRatio="xMidYMid meet">

<g transform="translate(0.000000,512.000000) scale(0.100000,-0.100000)"
fill="#000000" stroke="none">
<path d="M3170 4625 c-251 -56 -465 -230 -574 -467 -145 -313 -76 -648 186
-893 194 -183 449 -254 693 -196 104 25 162 51 260 116 274 182 423 521 360
817 -60 285 -289 526 -577 608 -96 28 -260 35 -348 15z m332 -347 c133 -64
228 -173 270 -311 17 -56 20 -86 16 -159 -5 -76 -11 -100 -41 -162 -107 -216
-348 -325 -566 -257 -152 47 -287 186 -325 336 -48 181 24 376 184 496 101 76
176 100 302 95 75 -3 97 -8 160 -38z"/>
<path d="M1625 3661 c-271 -66 -496 -284 -585 -566 -34 -108 -39 -276 -11
-385 40 -159 114 -284 238 -401 321 -302 793 -284 1098 42 214 229 284 521
191 791 -86 247 -327 461 -588 523 -85 20 -254 18 -343 -4z m300 -313 c168
-41 318 -206 348 -382 42 -245 -151 -505 -408 -549 -190 -33 -402 87 -497 280
-32 65 -33 73 -33 184 l0 116 42 85 c107 215 325 321 548 266z"/>
<path d="M3981 3028 c-54 -28 -79 -60 -92 -116 -12 -54 1 -86 76 -177 119
-147 209 -385 222 -586 l6 -97 -46 -48 c-77 -83 -255 -164 -437 -198 -43 -9
-150 -20 -237 -26 -209 -13 -218 -15 -263 -56 -81 -73 -59 -198 44 -251 64
-34 397 -8 613 48 304 78 515 214 600 386 33 67 38 86 41 167 12 264 -96 595
-266 821 -107 143 -176 178 -261 133z"/>
<path d="M2462 2073 c-41 -20 -69 -54 -84 -104 -16 -56 0 -100 72 -189 71 -88
160 -262 189 -370 11 -41 26 -119 32 -172 11 -87 10 -102 -6 -143 -20 -53 -83
-109 -177 -156 -225 -114 -745 -157 -1079 -89 -187 38 -369 120 -441 199 l-41
44 6 106 c11 198 83 392 211 568 93 130 103 161 67 231 -39 76 -147 100 -231
51 -92 -55 -260 -339 -315 -534 -72 -257 -71 -453 3 -588 76 -140 255 -266
499 -350 331 -116 716 -126 1113 -32 281 68 463 157 591 292 102 107 136 208
125 375 -11 176 -50 329 -126 495 -66 143 -202 332 -263 366 -40 21 -102 22
-145 0z"/>
</g>
</svg>
